<?xml version="1.0" encoding="utf-8"?>
<svg viewBox="60 8.171 230 330" xmlns="http://www.w3.org/2000/svg">
  <path id="XMLID_505_" d="M 64.394 333.778 C 61.679 331.063 60 327.313 60 323.171 L 60 153.171 C 60 149.029 61.679 145.279 64.394 142.564 C 67.108 139.85 70.858 138.171 75 138.171 L 90 138.171 L 90 93.171 C 90 69.736 99.533 48.486 114.924 33.095 C 130.316 17.704 151.566 8.171 175 8.171 C 198.435 8.171 219.685 17.704 235.076 33.095 C 250.467 48.486 260 69.736 260 93.171 L 260 138.171 L 275 138.171 C 279.142 138.171 282.892 139.85 285.607 142.564 C 288.321 145.279 290 149.029 290 153.171 L 290 323.171 C 290 327.313 288.321 331.063 285.607 333.778 C 282.892 336.492 279.142 338.171 275 338.171 L 75 338.171 C 70.858 338.171 67.108 336.492 64.394 333.778 Z M 120 138.171 L 230 138.171 L 230 93.171 C 230 78.008 223.832 64.258 213.873 54.298 C 203.914 44.339 190.164 38.171 175 38.171 C 159.837 38.171 146.087 44.339 136.127 54.298 C 126.168 64.258 120 78.008 120 93.171 L 120 138.171 Z M 238.842 189.791 C 231.401 181.698 221.116 177.243 209.882 177.243 C 201.056 177.243 192.801 180.701 186.009 187.242 C 181.475 191.606 177.736 197.155 175.001 203.529 C 172.265 197.155 168.525 191.606 163.994 187.242 C 157.2 180.701 148.945 177.243 140.12 177.243 C 128.886 177.243 118.601 181.699 111.16 189.791 C 104.229 197.326 100.255 207.617 100.255 218.026 C 100.255 230.524 104.183 242.861 111.928 254.691 C 118.062 264.06 126.593 273.129 137.285 281.649 C 155.401 296.084 173.231 303.857 173.981 304.18 C 174.624 304.458 175.377 304.458 176.019 304.18 C 176.77 303.857 194.6 296.084 212.716 281.649 C 223.407 273.129 231.939 264.06 238.072 254.691 C 245.818 242.861 249.746 230.524 249.746 218.026 C 249.746 207.617 245.771 197.326 238.842 189.791 Z" transform="matrix(1, 0, 0, 1, 7.105427357601002e-15, 7.105427357601002e-15)"/>
</svg>